<?xml version="1.0" encoding="UTF-8"?>
<!DOCTYPE svg PUBLIC "-//W3C//DTD SVG 1.1//EN" "http://www.w3.org/Graphics/SVG/1.1/DTD/svg11.dtd">
<svg xmlns="http://www.w3.org/2000/svg" version="1.1" width="268px" height="272px" style="shape-rendering:geometricPrecision; text-rendering:geometricPrecision; image-rendering:optimizeQuality; fill-rule:evenodd; clip-rule:evenodd" xmlns:xlink="http://www.w3.org/1999/xlink">
<g><path style="opacity:0.999" fill="#c73c89" d="M 123.5,4.5 C 126.833,4.5 130.167,4.5 133.5,4.5C 133.5,9.16667 133.5,13.8333 133.5,18.5C 129.233,18.797 125.066,18.4637 121,17.5C 120.797,13.5787 120.297,9.74541 119.5,6C 121.058,5.78997 122.391,5.28997 123.5,4.5 Z"/></g>
<g><path style="opacity:0.999" fill="#c73a88" d="M 142.5,5.5 C 147.267,5.19076 151.934,5.69076 156.5,7C 155.244,11.0395 154.577,15.2061 154.5,19.5C 150.131,19.5328 145.798,19.1995 141.5,18.5C 141.739,14.1578 142.073,9.82444 142.5,5.5 Z"/></g>
<g><path style="opacity:0.999" fill="#c83e8a" d="M 102.5,7.5 C 104.467,7.26057 106.301,7.59391 108,8.5C 108.644,12.2206 109.477,15.8872 110.5,19.5C 107.042,21.2855 103.376,22.6189 99.5,23.5C 97.0768,19.9193 95.4102,15.9193 94.5,11.5C 96.9107,9.58955 99.5774,8.25622 102.5,7.5 Z"/></g>
<g><path style="opacity:0.439" fill="#eebdd9" d="M 171.5,10.5 C 170.041,10.4326 168.708,10.7659 167.5,11.5C 167.62,10.4138 168.287,9.74716 169.5,9.5C 170.416,9.54272 171.083,9.87605 171.5,10.5 Z"/></g>
<g><path style="opacity:1" fill="#c73c89" d="M 171.5,10.5 C 175.095,10.9758 178.428,12.1425 181.5,14C 179.671,18.1495 177.837,22.3162 176,26.5C 172.026,25.121 168.192,23.4544 164.5,21.5C 165.505,18.1544 166.505,14.8211 167.5,11.5C 168.708,10.7659 170.041,10.4326 171.5,10.5 Z"/></g>
<g><path style="opacity:0.298" fill="#f2cbe1" d="M 80.5,15.5 C 81.9473,14.1148 82.9473,14.4482 83.5,16.5C 82.609,15.8902 81.609,15.5569 80.5,15.5 Z"/></g>
<g><path style="opacity:1" fill="#c9408b" d="M 80.5,15.5 C 81.609,15.5569 82.609,15.8902 83.5,16.5C 85.3921,20.0067 86.5588,23.6734 87,27.5C 83.9123,29.2941 80.7456,30.9608 77.5,32.5C 74.9308,29.039 72.5974,25.3723 70.5,21.5C 73.1896,18.4861 76.5229,16.4861 80.5,15.5 Z"/></g>
<g><path style="opacity:1" fill="#c83f8b" d="M 192.5,18.5 C 196.836,20.332 200.836,22.6654 204.5,25.5C 202.555,29.7363 199.888,33.4029 196.5,36.5C 193.167,34.5 189.833,32.5 186.5,30.5C 188.513,26.4734 190.513,22.4734 192.5,18.5 Z"/></g>
<g><path style="opacity:1" fill="#c22780" d="M 123.5,24.5 C 165.397,22.8619 197.564,39.5286 220,74.5C 240.521,114.76 237.521,153.094 211,189.5C 180.299,223.345 142.965,233.678 99,220.5C 56.5467,203.185 34.0467,171.519 31.5,125.5C 36.4349,68.2376 67.1016,34.571 123.5,24.5 Z M 135.5,32.5 C 147.245,32.9594 158.578,35.4594 169.5,40C 173.395,41.9525 174.229,44.7858 172,48.5C 170.806,49.4303 169.473,50.0969 168,50.5C 150.946,43.1204 133.446,41.7871 115.5,46.5C 110.221,44.4329 109.221,41.0995 112.5,36.5C 120.178,34.4553 127.845,33.1219 135.5,32.5 Z M 186.5,52.5 C 193.061,53.8824 197.727,57.7157 200.5,64C 198.541,69.6483 195.207,70.6483 190.5,67C 188.333,64.8333 186.167,62.6667 184,60.5C 183.023,57.1827 183.856,54.516 186.5,52.5 Z M 209.5,143.5 C 209.672,144.492 209.338,145.158 208.5,145.5C 207.025,143.59 205.025,142.424 202.5,142C 197.777,141.376 193.11,141.71 188.5,143C 184.125,144.701 182.458,147.867 183.5,152.5C 192.083,153.123 200.416,152.123 208.5,149.5C 209.461,151.265 209.795,153.265 209.5,155.5C 208.137,168.27 203.471,179.603 195.5,189.5C 192.5,191.833 189.833,194.5 187.5,197.5C 165.235,211.993 140.901,216.826 114.5,212C 73.0042,204.216 55.8375,179.382 63,137.5C 66.9299,123.464 68.5966,109.131 68,94.5C 68.129,86.1595 70.629,78.6595 75.5,72C 80.5001,69.8318 85.1668,70.4985 89.5,74C 96.441,80.4345 102.774,87.2678 108.5,94.5C 118.558,91.1216 128.891,88.955 139.5,88C 142.429,77.806 147.429,68.806 154.5,61C 157.652,59.1457 160.652,59.479 163.5,62C 170.338,72.5013 174.838,84.0013 177,96.5C 195.87,106.548 206.703,122.215 209.5,143.5 Z M 207.5,85.5 C 208.167,86.1667 208.833,86.8333 209.5,87.5C 210.455,91.0045 212.789,93.1711 216.5,94C 212.348,94.3808 210.015,96.5474 209.5,100.5C 208.833,101.167 208.167,101.833 207.5,102.5C 207.108,97.6055 204.441,94.7722 199.5,94C 204.435,93.2329 207.102,90.3996 207.5,85.5 Z"/></g>
<g><path style="opacity:1" fill="#c9418c" d="M 59.5,26.5 C 62.3036,30.1541 64.9703,33.9875 67.5,38C 64.3081,40.6924 60.9748,43.1924 57.5,45.5C 54.3421,42.1724 51.3421,38.6724 48.5,35C 52.0667,31.9205 55.7334,29.0871 59.5,26.5 Z"/></g>
<g><path style="opacity:1" fill="#c9418b" d="M 213.5,32.5 C 218.024,34.3479 221.69,37.3479 224.5,41.5C 221.471,44.859 218.471,48.1924 215.5,51.5C 212.284,48.7812 209.284,45.9479 206.5,43C 208.724,39.3735 211.057,35.8735 213.5,32.5 Z"/></g>
<g><path style="opacity:1" fill="#c9438c" d="M 38.5,43.5 C 42.5698,46.0604 46.2365,49.2271 49.5,53C 46.315,55.884 43.4816,59.0507 41,62.5C 37.3276,59.6579 33.8276,56.6579 30.5,53.5C 33.1751,50.1362 35.8418,46.8029 38.5,43.5 Z"/></g>
<g><path style="opacity:1" fill="#c9418b" d="M 232.5,50.5 C 236.315,53.1595 239.315,56.6595 241.5,61C 238.287,63.8767 234.787,66.3767 231,68.5C 228.008,65.9996 225.508,62.9996 223.5,59.5C 226.215,56.1185 229.215,53.1185 232.5,50.5 Z"/></g>
<g><path style="opacity:0.999" fill="#c9418b" d="M 22.5,63.5 C 26.8237,65.6632 30.8237,68.3299 34.5,71.5C 32.6465,75.2208 30.3131,78.5541 27.5,81.5C 23.2886,79.9017 19.622,77.5684 16.5,74.5C 18.2583,70.6462 20.2583,66.9795 22.5,63.5 Z"/></g>
<g><path style="opacity:1" fill="#ca448d" d="M 247.5,71.5 C 250.829,74.8117 253.162,78.8117 254.5,83.5C 250.779,86.0272 246.779,88.0272 242.5,89.5C 240.246,85.9934 238.246,82.3267 236.5,78.5C 240.401,76.3919 244.067,74.0585 247.5,71.5 Z"/></g>
<g><path style="opacity:0.999" fill="#c73c89" d="M 156.5,74.5 C 158.144,74.2865 159.644,74.6198 161,75.5C 164.564,81.7665 166.564,88.4332 167,95.5C 161.85,92.8356 156.35,91.5023 150.5,91.5C 151.129,85.2967 153.129,79.63 156.5,74.5 Z"/></g>
<g><path style="opacity:1" fill="#c63987" d="M 79.5,83.5 C 81.5273,83.3379 83.5273,83.5045 85.5,84C 90.4835,88.9651 94.4835,94.6317 97.5,101C 91.0796,104.627 84.5796,108.127 78,111.5C 75.7985,101.994 76.2985,92.6611 79.5,83.5 Z"/></g>
<g><path style="opacity:0.043" fill="#eebfda" d="M 209.5,87.5 C 208.833,86.8333 208.167,86.1667 207.5,85.5C 207.343,84.1266 207.51,82.7932 208,81.5C 208.813,83.4357 209.313,85.4357 209.5,87.5 Z"/></g>
<g><path style="opacity:1" fill="#c9428c" d="M 10.5,86.5 C 14.7792,87.8712 18.9459,89.5378 23,91.5C 22.3141,95.4002 21.1474,99.2335 19.5,103C 15.2886,102.267 11.1219,101.1 7,99.5C 7.43217,95.0265 8.59884,90.6932 10.5,86.5 Z"/></g>
<g><path style="opacity:1" fill="#c83f8b" d="M 257.5,95.5 C 258.75,95.5774 259.583,96.244 260,97.5C 261.166,101.145 261.833,104.812 262,108.5C 257.649,110.071 253.149,111.071 248.5,111.5C 247.662,107.501 247.162,103.501 247,99.5C 250.554,98.0417 254.054,96.7083 257.5,95.5 Z"/></g>
<g><path style="opacity:0.6" fill="#e18fbf" d="M 209.5,100.5 C 209.628,102.655 209.128,104.655 208,106.5C 207.51,105.207 207.343,103.873 207.5,102.5C 208.167,101.833 208.833,101.167 209.5,100.5 Z"/></g>
<g><path style="opacity:0.999" fill="#c42f84" d="M 15.5,123.5 C 14.2209,124.968 12.5542,125.635 10.5,125.5C 8.83333,125.5 7.16667,125.5 5.5,125.5C 4.79105,124.596 3.79105,124.263 2.5,124.5C 2.5,122.833 2.5,121.167 2.5,119.5C 2.23166,116.881 2.565,114.381 3.5,112C 7.7878,112.42 12.1211,112.92 16.5,113.5C 16.3841,116.86 16.0508,120.193 15.5,123.5 Z"/></g>
<g><path style="opacity:1" fill="#c63887" d="M 263.5,120.5 C 264.222,120.918 264.722,121.584 265,122.5C 265.499,126.486 265.666,130.486 265.5,134.5C 260.833,134.5 256.167,134.5 251.5,134.5C 251.5,130.5 251.5,126.5 251.5,122.5C 255.664,122.044 259.664,121.378 263.5,120.5 Z"/></g>
<g><path style="opacity:0.514" fill="#e6a2ca" d="M 2.5,119.5 C 2.5,121.167 2.5,122.833 2.5,124.5C 3.79105,124.263 4.79105,124.596 5.5,125.5C 4.16667,125.5 2.83333,125.5 1.5,125.5C 1.20528,123.265 1.53862,121.265 2.5,119.5 Z"/></g>
<g><path style="opacity:0.265" fill="#eebeda" d="M 15.5,123.5 C 15.5,124.5 15.5,125.5 15.5,126.5C 13.5853,126.784 11.9187,126.451 10.5,125.5C 12.5542,125.635 14.2209,124.968 15.5,123.5 Z"/></g>
<g><path style="opacity:1" fill="#c63786" d="M 173.5,129.5 C 180.61,128.546 185.277,131.38 187.5,138C 187.368,140.799 186.035,142.799 183.5,144C 179.992,145.669 176.325,146.836 172.5,147.5C 168.598,147.097 166.598,144.931 166.5,141C 166.946,135.927 169.28,132.094 173.5,129.5 Z"/></g>
<g><path style="opacity:0.999" fill="#c63887" d="M 1.5,137.5 C 5.83333,137.5 10.1667,137.5 14.5,137.5C 14.858,141.599 14.858,145.599 14.5,149.5C 10.5,150.167 6.5,150.833 2.5,151.5C 0.992856,146.818 0.659523,142.151 1.5,137.5 Z"/></g>
<g><path style="opacity:1" fill="#c53284" d="M 120.5,139.5 C 130.592,138.764 136.925,143.264 139.5,153C 139.138,154.225 138.638,155.391 138,156.5C 129.011,158.602 120.178,157.769 111.5,154C 109.556,151.847 109.056,149.347 110,146.5C 112.701,142.748 116.201,140.415 120.5,139.5 Z"/></g>
<g><path style="opacity:0.995" fill="#ff5348" d="M 208.5,145.5 C 208.5,146.833 208.5,148.167 208.5,149.5C 200.416,152.123 192.083,153.123 183.5,152.5C 182.458,147.867 184.125,144.701 188.5,143C 193.11,141.71 197.777,141.376 202.5,142C 205.025,142.424 207.025,143.59 208.5,145.5 Z"/></g>
<g><path style="opacity:0.999" fill="#c53285" d="M 259.5,146.5 C 260.919,147.451 262.585,147.784 264.5,147.5C 264.5,148.833 264.5,150.167 264.5,151.5C 264.726,154.249 264.393,156.916 263.5,159.5C 262.833,159.833 262.167,160.167 261.5,160.5C 257.841,159.724 254.175,159.057 250.5,158.5C 250.421,154.05 251.088,149.717 252.5,145.5C 254.747,146.374 257.08,146.708 259.5,146.5 Z"/></g>
<g><path style="opacity:0.18" fill="#f3d3e6" d="M 259.5,146.5 C 261.5,146.5 263.5,146.5 265.5,146.5C 265.784,148.415 265.451,150.081 264.5,151.5C 264.5,150.167 264.5,148.833 264.5,147.5C 262.585,147.784 260.919,147.451 259.5,146.5 Z"/></g>
<g><path style="opacity:0.239" fill="#f1bdd3" d="M 209.5,143.5 C 210.833,147.5 210.833,151.5 209.5,155.5C 209.795,153.265 209.461,151.265 208.5,149.5C 208.5,148.167 208.5,146.833 208.5,145.5C 209.338,145.158 209.672,144.492 209.5,143.5 Z"/></g>
<g><path style="opacity:1" fill="#cb4990" d="M 160.5,148.5 C 163.261,147.915 164.927,148.915 165.5,151.5C 164.723,153.447 163.723,155.28 162.5,157C 163.555,162.281 164.222,167.448 164.5,172.5C 166.768,173.544 169.101,173.711 171.5,173C 172.651,170.881 174.151,169.047 176,167.5C 179.571,174.017 177.404,178.017 169.5,179.5C 167.235,179.06 165.068,178.394 163,177.5C 156.994,184.459 149.827,185.959 141.5,182C 140.62,180.644 140.286,179.144 140.5,177.5C 143.666,177.766 146.833,178.099 150,178.5C 154.124,179.107 156.791,177.44 158,173.5C 158.839,168.079 158.506,162.746 157,157.5C 152.811,156.871 151.645,154.705 153.5,151C 156.004,150.302 158.337,149.469 160.5,148.5 Z"/></g>
<g><path style="opacity:0.995" fill="#ff554a" d="M 112.5,158.5 C 118.633,157.937 123.633,159.937 127.5,164.5C 126.571,166.638 124.904,167.804 122.5,168C 116.201,169.33 109.868,169.996 103.5,170C 100.8,169.051 99.967,167.217 101,164.5C 104.044,160.73 107.878,158.73 112.5,158.5 Z"/></g>
<g><path style="opacity:1" fill="#c83f8a" d="M 14.5,160.5 C 15.5,160.5 16.5,160.5 17.5,160.5C 18.3266,164.807 18.9933,169.14 19.5,173.5C 15.5508,173.982 11.7175,174.982 8,176.5C 7.05456,176.095 6.38789,175.428 6,174.5C 4.83409,170.855 4.16743,167.188 4,163.5C 7.61003,162.552 11.11,161.552 14.5,160.5 Z"/></g>
<g><path style="opacity:1" fill="#c83e8a" d="M 247.5,169.5 C 252.397,169.633 256.73,171.133 260.5,174C 259.755,177.902 258.422,181.569 256.5,185C 251.915,184.216 247.582,182.55 243.5,180C 244.935,176.527 246.268,173.027 247.5,169.5 Z"/></g>
<g><path style="opacity:1" fill="#c9428c" d="M 20.5,183.5 C 21.9778,183.238 23.3112,183.571 24.5,184.5C 26.0392,187.746 27.7059,190.912 29.5,194C 25.6597,196.421 21.6597,198.588 17.5,200.5C 14.66,197.179 12.66,193.345 11.5,189C 14.4551,187.073 17.4551,185.24 20.5,183.5 Z"/></g>
<g><path style="opacity:1" fill="#c83e8a" d="M 238.5,190.5 C 242.939,192.554 247.272,194.887 251.5,197.5C 249.484,201.543 246.984,205.21 244,208.5C 240.213,206.377 236.713,203.877 233.5,201C 235.058,197.387 236.725,193.887 238.5,190.5 Z"/></g>
<g><path style="opacity:0.831" fill="#de80b3" d="M 195.5,189.5 C 193.833,193.167 191.167,195.833 187.5,197.5C 189.833,194.5 192.5,191.833 195.5,189.5 Z"/></g>
<g><path style="opacity:1" fill="#c9408b" d="M 33.5,203.5 C 35.0174,203.511 36.1841,204.177 37,205.5C 38.8333,208 40.6667,210.5 42.5,213C 39.2835,216.517 35.7835,219.684 32,222.5C 28.9754,218.976 26.1421,215.309 23.5,211.5C 27.1654,209.159 30.4988,206.493 33.5,203.5 Z"/></g>
<g><path style="opacity:1" fill="#ca448d" d="M 225.5,210.5 C 229.88,212.7 233.88,215.533 237.5,219C 234.703,222.799 231.536,226.299 228,229.5C 224.651,226.318 221.484,222.985 218.5,219.5C 221.239,216.767 223.573,213.767 225.5,210.5 Z"/></g>
<g><path style="opacity:1" fill="#c32b82" d="M 188.5,215.5 C 189.496,215.414 190.329,215.748 191,216.5C 192.674,225.146 190.174,232.313 183.5,238C 153.273,250.849 122.607,251.849 91.5,241C 81.0265,235.618 77.8599,227.785 82,217.5C 103.006,227.834 125.172,232.001 148.5,230C 163.03,228.215 176.363,223.381 188.5,215.5 Z"/></g>
<g><path style="opacity:1" fill="#c9418c" d="M 49.5,221.5 C 53.2543,223.748 56.5876,226.581 59.5,230C 56.6184,233.593 53.6184,237.093 50.5,240.5C 47.1257,237.49 43.7923,234.49 40.5,231.5C 43.5222,228.147 46.5222,224.813 49.5,221.5 Z"/></g>
<g><path style="opacity:1" fill="#c9408b" d="M 208.5,227.5 C 212.701,229.701 216.035,233.034 218.5,237.5C 216.003,240.993 212.837,243.66 209,245.5C 205.483,242.64 202.65,239.14 200.5,235C 203.432,232.715 206.098,230.215 208.5,227.5 Z"/></g>
<g><path style="opacity:1" fill="#c83e8a" d="M 67.5,236.5 C 71.7998,237.648 75.4665,239.815 78.5,243C 76.9732,247.223 74.8066,251.056 72,254.5C 67.9167,252.543 64.0834,250.21 60.5,247.5C 63.0938,243.974 65.4271,240.308 67.5,236.5 Z"/></g>
<g><path style="opacity:1" fill="#c83e8a" d="M 189.5,240.5 C 190.496,240.414 191.329,240.748 192,241.5C 193.713,245.095 195.547,248.595 197.5,252C 194.192,254.659 190.525,256.825 186.5,258.5C 183.66,255.179 181.66,251.345 180.5,247C 180.645,246.228 180.978,245.561 181.5,245C 184.633,244.14 187.3,242.64 189.5,240.5 Z"/></g>
<g><path style="opacity:1" fill="#c83f8b" d="M 88.5,247.5 C 92.4848,248.488 96.4848,249.488 100.5,250.5C 99.6118,255.394 98.1118,260.061 96,264.5C 91.8007,262.933 87.6341,261.266 83.5,259.5C 85.1818,255.474 86.8485,251.474 88.5,247.5 Z"/></g>
<g><path style="opacity:1" fill="#c9428c" d="M 168.5,249.5 C 170.914,253.046 172.581,257.046 173.5,261.5C 173.182,262.647 172.516,263.481 171.5,264C 168.312,264.755 165.145,265.589 162,266.5C 161.055,266.095 160.388,265.428 160,264.5C 159.356,260.779 158.523,257.113 157.5,253.5C 161.326,252.304 164.993,250.971 168.5,249.5 Z"/></g>
<g><path style="opacity:1" fill="#c73b89" d="M 111.5,253.5 C 115.399,253.965 119.233,254.632 123,255.5C 123.076,259.819 122.909,264.152 122.5,268.5C 117.807,268.46 113.141,268.127 108.5,267.5C 109.249,262.752 110.249,258.085 111.5,253.5 Z"/></g>
<g><path style="opacity:1" fill="#c83f8a" d="M 143.5,254.5 C 144.822,254.33 145.989,254.663 147,255.5C 147.465,259.848 147.965,264.181 148.5,268.5C 143.848,268.998 139.181,269.331 134.5,269.5C 134.5,264.833 134.5,260.167 134.5,255.5C 137.713,255.81 140.713,255.477 143.5,254.5 Z"/></g>
</svg>
